<svg width="32" height="32" viewBox="0 0 32 32" fill="none" xmlns="http://www.w3.org/2000/svg">
<g clip-path="url(#clip0_3315_85671)">
<path d="M16 32C24.84 32 32 24.84 32 16C32 7.16 24.84 0 16 0C7.16 0 0 7.16 0 16C0 24.84 7.16 32 16 32Z" fill="#DCDCDC"/>
<g clip-path="url(#clip1_3315_85671)">
<path fill-rule="evenodd" clip-rule="evenodd" d="M23.1403 11.0114C23.1403 11.0114 18.1745 12.0074 16.0013 12.0074C13.8281 12.0074 8.86235 11.0114 8.86235 11.0114C8.4634 10.9416 8.08546 11.2006 8.01197 11.5791C7.93848 11.9576 8.21144 12.3161 8.61038 12.3858C8.61038 12.3858 11.403 12.9834 12.9253 13.2822C14.0276 13.5014 13.8491 14.1587 13.8596 14.7862C13.8911 16.5093 13.8386 17.8439 13.4712 19.3778C13.2507 20.304 12.2114 24.0888 12.2114 24.0888C12.0854 24.4574 12.2954 24.8458 12.6838 24.9653C13.0722 25.0848 13.4817 24.8856 13.6077 24.5171C13.6077 24.5171 15.3504 19.4774 15.4239 19.2981C15.5499 18.9893 15.6549 18.7802 16.0013 18.7802C16.3478 18.7802 16.4528 18.9893 16.5787 19.2981C16.6522 19.4774 18.395 24.5171 18.395 24.5171C18.521 24.8856 18.9304 25.0848 19.3188 24.9653C19.7073 24.8458 19.9173 24.4574 19.7913 24.0888C19.7913 24.0888 18.7624 20.304 18.5315 19.3778C18.164 17.8439 18.1115 16.5093 18.143 14.7862C18.1535 14.1587 17.975 13.4914 19.0774 13.2822C20.5997 12.9834 23.3923 12.3858 23.3923 12.3858C23.7912 12.3161 24.0537 11.9576 23.9907 11.5791C23.9172 11.2006 23.5392 10.9516 23.1403 11.0114Z" fill="#1E1E1E"/>
<path fill-rule="evenodd" clip-rule="evenodd" d="M16 10.5C16.9625 10.5 17.75 9.7125 17.75 8.75C17.75 7.7875 16.9722 7 16 7C15.0278 7 14.25 7.7875 14.25 8.75C14.25 9.7125 15.0375 10.5 16 10.5Z" fill="#1E1E1E"/>
</g>
</g>
<defs>
<clipPath id="clip0_3315_85671">
<rect width="32" height="32" fill="white"/>
</clipPath>
<clipPath id="clip1_3315_85671">
<rect width="16" height="18" fill="white" transform="translate(8 7)"/>
</clipPath>
</defs>
</svg>
